<mxfile host="app.diagrams.net" modified="2021-11-16T13:37:44.955Z" agent="5.0 (Windows)" etag="TCAd36LvIYvM-zPuGLst" version="15.7.4" type="github">
  <diagram id="vCrIGn_0Ll-jkb-Q1wgR" name="Page-1">
    <mxGraphModel dx="1038" dy="556" grid="1" gridSize="10" guides="1" tooltips="1" connect="1" arrows="1" fold="1" page="1" pageScale="1" pageWidth="827" pageHeight="1169" math="0" shadow="0">
      <root>
        <mxCell id="0" />
        <mxCell id="1" parent="0" />
        <mxCell id="w0Iy837ZUC8ANiV8C7e1-1" value="&lt;div&gt;go to&lt;/div&gt;&lt;div&gt;https://dropmail.me/en/&lt;br&gt;&lt;/div&gt;" style="rounded=1;whiteSpace=wrap;html=1;" vertex="1" parent="1">
          <mxGeometry x="300" y="20" width="160" height="60" as="geometry" />
        </mxCell>
        <mxCell id="w0Iy837ZUC8ANiV8C7e1-2" value="&lt;div&gt;get an email address like&amp;nbsp;&lt;/div&gt;&lt;div&gt;xcdnbaxxx@emlpro.com&lt;br&gt;&lt;/div&gt;" style="rounded=1;whiteSpace=wrap;html=1;" vertex="1" parent="1">
          <mxGeometry x="160" y="220" width="140" height="60" as="geometry" />
        </mxCell>
        <mxCell id="w0Iy837ZUC8ANiV8C7e1-3" value="&lt;div&gt;mx lookup for emlpro.com will give&lt;/div&gt;&lt;div&gt;mx.emlpro.com&lt;/div&gt;&lt;div&gt;159.69.193.248&lt;br&gt;&lt;/div&gt;" style="rounded=1;whiteSpace=wrap;html=1;" vertex="1" parent="1">
          <mxGeometry x="160" y="320" width="120" height="60" as="geometry" />
        </mxCell>
        <mxCell id="w0Iy837ZUC8ANiV8C7e1-4" value="&lt;div&gt;reverse dns for emlpro.com is&lt;/div&gt;&lt;div&gt;dropmail.me&lt;br&gt;&lt;/div&gt;" style="rounded=1;whiteSpace=wrap;html=1;" vertex="1" parent="1">
          <mxGeometry x="160" y="410" width="120" height="60" as="geometry" />
        </mxCell>
        <mxCell id="w0Iy837ZUC8ANiV8C7e1-5" value="&lt;div&gt;use a new browser &lt;br&gt;&lt;/div&gt;&lt;div&gt;incognito&lt;/div&gt;&lt;div&gt;maybe on a new IP (vpn, proxy)&lt;/div&gt;" style="rounded=1;whiteSpace=wrap;html=1;" vertex="1" parent="1">
          <mxGeometry x="294" y="110" width="120" height="60" as="geometry" />
        </mxCell>
        <mxCell id="w0Iy837ZUC8ANiV8C7e1-6" value="&lt;div&gt;get an email address like&amp;nbsp;&lt;/div&gt;&lt;div&gt;xjzrdbimc@supere.ml&lt;br&gt;&lt;/div&gt;" style="rounded=1;whiteSpace=wrap;html=1;" vertex="1" parent="1">
          <mxGeometry x="400" y="220" width="140" height="60" as="geometry" />
        </mxCell>
        <mxCell id="w0Iy837ZUC8ANiV8C7e1-7" value="&lt;div&gt;mx lookup for supere.ml will give&lt;/div&gt;&lt;div&gt;mx.supere.ml&lt;/div&gt;&lt;div&gt;159.69.193.248&lt;br&gt;&lt;/div&gt;" style="rounded=1;whiteSpace=wrap;html=1;" vertex="1" parent="1">
          <mxGeometry x="410" y="320" width="120" height="60" as="geometry" />
        </mxCell>
        <mxCell id="w0Iy837ZUC8ANiV8C7e1-8" value="&lt;div&gt;reverse dns for emlpro.com is&lt;/div&gt;&lt;div&gt;dropmail.me&lt;br&gt;&lt;/div&gt;" style="rounded=1;whiteSpace=wrap;html=1;" vertex="1" parent="1">
          <mxGeometry x="410" y="410" width="120" height="60" as="geometry" />
        </mxCell>
        <mxCell id="w0Iy837ZUC8ANiV8C7e1-9" value="&lt;div align=&quot;left&quot;&gt;conclusions&lt;/div&gt;&lt;div align=&quot;left&quot;&gt;&lt;br&gt;&lt;/div&gt;&lt;div align=&quot;left&quot;&gt;IP 159.69.193.248 &lt;br&gt;&lt;/div&gt;&lt;div align=&quot;left&quot;&gt;can be automatically blacklisted because reverse dns (dropmail.me) is a known dea provider.&lt;/div&gt;&lt;div align=&quot;left&quot;&gt;&lt;br&gt;&lt;/div&gt;&lt;div align=&quot;left&quot;&gt;any newly found domain with mx to this IP can be automatically blacklisted.&lt;/div&gt;&lt;div align=&quot;left&quot;&gt;&lt;br&gt;&lt;/div&gt;&lt;div align=&quot;left&quot;&gt;With providers that use this setup (mx uses the disposable domain name), this system works when we can be sure that the IP belongs only to the dea provider, is not shared. Thanks to the reverse dns we can be sure here.&lt;br&gt;&lt;/div&gt;" style="shape=note;whiteSpace=wrap;html=1;backgroundOutline=1;darkOpacity=0.05;fontSize=12;" vertex="1" parent="1">
          <mxGeometry x="580" y="200" width="200" height="260" as="geometry" />
        </mxCell>
      </root>
    </mxGraphModel>
  </diagram>
</mxfile>
